# xmcd
#
# Track frame offsets:
#	150
#	11282
#	34015
#	54652
#	74055
#	92825
#	105375
#	123727
#	144280
#	155467
#	173687
#	187347
#	203797
#	221187
#	235705
#	260022
#	276932
#	287682
#	305250
#
# Disc length: 4400 seconds
#
# Revision: 15
# Processed by: cddbd v1.5.2PL0 Copyright (c) Steve Scherf et al.
# Submitted via: EZCDAudioConverter 8.0.2.1
#
DISCID=1c112e13
DTITLE=CHITÃOZINHO and XORORÓ - IRMÃOS CORAGEM (30 ANOS AO VIVO) ( CD 7314546637
DTITLE=2) UNIVERSAL MERCURY
DYEAR=2000
DGENRE=Sertanejo
TTITLE0=IRMÃOS CORAGEM
TTITLE1=MEDLEY DE VIOLA: OBRAS DE POETA (OS PASSARINHOS) - FOGÃO DE LENHA - NO
TTITLE1=RANCHO FUNDO
TTITLE2=UM, DOIS, TRÊS
TTITLE3=MEU DISFARCE
TTITLE4=DESLIZES
TTITLE5=REBOLA
TTITLE6=MEDLEY POLCAS: GALOPEIRA - VÁ PRO INFERNO COM SEU AMOR
TTITLE7=ME DEIXA FICAR
TTITLE8=MEDLEY CHAMAMÉ: 60 DIAS APAIXONADO - SORRISO MUDO
TTITLE9=SOLIDÃO
TTITLE10=FIO DE CABELO
TTITLE11=O AMOR É LINDO
TTITLE12=MEDLEY COUNTRY: BAILÃO DE PEÃO - NA ABA DO MEU CHAPÉU
TTITLE13=SOM DA VIOLA
TTITLE14=EVIDÊNCIAS
TTITLE15=CORAÇÃO SERTANEJO
TTITLE16=ALÔ
TTITLE17=SE DEUS ME OUVISSE
TTITLE18=CORPO E ALMA
EXTD=
EXTT0=
EXTT1=
EXTT2=
EXTT3=
EXTT4=
EXTT5=
EXTT6=
EXTT7=
EXTT8=
EXTT9=
EXTT10=
EXTT11=
EXTT12=
EXTT13=
EXTT14=
EXTT15=
EXTT16=
EXTT17=
EXTT18=
PLAYORDER=
